<?xml version="1.0" encoding="UTF-8" standalone="no"?>
<svg
   xmlns:dc="http://purl.org/dc/elements/1.1/"
   xmlns:cc="http://creativecommons.org/ns#"
   xmlns:rdf="http://www.w3.org/1999/02/22-rdf-syntax-ns#"
   xmlns:svg="http://www.w3.org/2000/svg"
   xmlns="http://www.w3.org/2000/svg"
   xmlns:sodipodi="http://sodipodi.sourceforge.net/DTD/sodipodi-0.dtd"
   xmlns:inkscape="http://www.inkscape.org/namespaces/inkscape"
   version="1.1"
   id="svg2"
   xml:space="preserve"
   width="1905.7067"
   height="1931.9733"
   viewBox="0 0 1905.7067 1931.9733"
   sodipodi:docname="stayinbalance_logo.eps"><metadata
     id="metadata8"><rdf:RDF><cc:Work
         rdf:about=""><dc:format>image/svg+xml</dc:format><dc:type
           rdf:resource="http://purl.org/dc/dcmitype/StillImage" /></cc:Work></rdf:RDF></metadata><defs
     id="defs6" /><sodipodi:namedview
     pagecolor="#ffffff"
     bordercolor="#666666"
     borderopacity="1"
     objecttolerance="10"
     gridtolerance="10"
     guidetolerance="10"
     inkscape:pageopacity="0"
     inkscape:pageshadow="2"
     inkscape:window-width="640"
     inkscape:window-height="480"
     id="namedview4" /><g
     id="g10"
     inkscape:groupmode="layer"
     inkscape:label="ink_ext_XXXXXX"
     transform="matrix(1.3333333,0,0,-1.3333333,0,1931.9733)"><g
       id="g12"
       transform="scale(0.1)"><path
         d="m 4623.53,13670.9 v 0 C 1963.09,12671.1 69.8047,10103.8 69.8047,7093.95 69.8047,3214.6 3214.63,69.8008 7093.96,69.8008 10973.3,69.8008 14118.1,3214.6 14118.1,7093.95"
         style="fill:none;stroke:#746242;stroke-width:139.611;stroke-linecap:butt;stroke-linejoin:miter;stroke-miterlimit:4;stroke-dasharray:none;stroke-opacity:1"
         id="path14" /><path
         d="m 5680.18,13465.3 c 45.59,5.2 62.35,54.7 106.54,59.8 49.74,5.7 110.38,-35 198.77,-24.9 128.49,14.7 245.41,142.8 228.83,287.9 -17.05,149.2 -135.46,193 -282.62,219.6 -93.15,18.8 -147.07,37.8 -153.09,90.3 -4.28,37.3 18.98,66.5 67.32,72 120.19,13.8 204.13,-157.1 267.7,-149.9 26.22,3 45.33,31.8 38.22,94 -9.95,87 -60.21,196 -134.81,187.5 -29.02,-3.3 -44.59,-26.1 -60.95,-91 -54.23,45.6 -133.81,68.7 -215.35,59.4 -131.23,-15 -239.17,-111.3 -223.25,-250.9 16.93,-147.8 128.84,-196.6 253.13,-218.8 131.54,-24.1 172.16,-48.8 177.53,-95.8 5.84,-51.1 -35.04,-85.2 -87.56,-91.2 -150.57,-17.2 -206.37,189.1 -292.01,179.4 -34.55,-4 -50.69,-46.4 -43.41,-110 12.48,-109.1 87.3,-225.1 155.01,-217.4 m 943.25,73.6 c 152.96,2 258.45,127.1 256.49,281.4 -0.74,58.4 -24.91,101.2 -45.77,100.9 -9.73,-0.1 -15.18,-9.9 -23.17,-36.4 -17.27,-62.8 -54.27,-109.2 -97.37,-109.7 -50.05,-0.6 -88.31,55.9 -90.27,211.6 -0.57,43.1 0.39,77.9 2.84,105.7 47.29,-2.2 136.33,-3.8 186.37,-3.2 20.86,0.3 34.65,11.6 34.3,36.6 -0.96,76.5 -81.2,154.8 -217.49,153 2.31,37.6 5.63,107.2 4.93,160 -0.39,33.4 -11.78,51.3 -36.78,51 -115.4,-1.5 -351.29,-261.7 -350.07,-359.1 0.35,-27.8 14.44,-41.5 49.21,-42.5 l 89,-1.6 c -8.81,-71 -13.44,-146.2 -12.48,-221.3 2.53,-200.2 80.63,-328.5 250.26,-326.4 M 7737,13726.1 c -9.69,0.8 -19.77,-2.5 -30.85,-1.5 -31.85,2.8 -56.06,28.7 -49.78,99.3 5.15,58.2 24,129.1 29.8,194.2 13.52,152.4 -80.89,268.3 -314.95,289.1 -217.45,19.3 -349.73,-55.5 -360.46,-176 -5.02,-56.8 58.42,-112.7 124.91,-118.6 19.37,-1.7 35.12,2.5 40.48,16 23.39,74.7 70.77,120.7 141.4,114.4 77.57,-6.9 110.51,-44.7 101.66,-144.4 -1.49,-16.6 -4.98,-40.1 -7.73,-55.2 -51.52,17.2 -113.47,26.9 -160.55,31 -168.97,15 -285.81,-43 -299.59,-198.1 -12.44,-139.9 74.12,-234.2 201.56,-245.5 110.82,-9.8 214.26,55 253.13,193.9 l 15.01,-4.1 c -2.75,-15.1 -5.85,-34.3 -7.46,-52.4 -8.6,-96.9 37.13,-163.8 127.13,-171.8 120.5,-10.7 217.84,95.1 225.12,176.9 2.58,29 -9.42,51 -28.83,52.8 m -461.2,-37.3 c -48.47,4.3 -74.34,43 -69.81,94.2 4.94,55.4 39.97,88.6 127.22,80.8 20.82,-1.8 46.99,-5.5 67.41,-11.5 l -1.22,-13.9 c -9.38,-105.3 -62.65,-155 -123.6,-149.6 m 659.18,-533 c 122.9,-23.5 237.56,64.9 366.78,273.8 124.65,199.8 231.49,373.3 267.58,428.7 21.59,31.3 55.75,54.4 79.09,65.5 30.98,13.9 53.97,37.8 59.73,67.9 12.83,66.9 -34.99,112.9 -164.74,137.7 -139.31,26.7 -191.96,-4.2 -202.13,-57.5 -6.54,-34.2 3.97,-53.2 29.75,-73.7 21.99,-18.3 30.59,-39.8 25.88,-64.4 -5.24,-27.3 -16.5,-49.2 -25.09,-64.6 -32.2,-64.6 -96.94,-188.1 -158.89,-282.4 -29.63,155.7 -46.77,287.8 -51.4,352.5 -2.66,23.1 -2.57,45.8 0.57,62.1 3.4,17.8 19.11,33.2 38.13,43.7 21.99,11.4 34.16,23.2 39.4,50.5 10.47,54.6 -29.45,97.7 -191.97,128.8 -154.31,29.6 -210.72,-6.3 -220.67,-58.2 -8.38,-43.8 5.19,-69 29.1,-92 25,-24.6 41.05,-51.8 47.38,-92.6 29.71,-236.5 53.53,-378.3 65.27,-413.1 9.25,-33 27.96,-53.6 66.18,-60.9 36.91,-7 71.42,3.3 96.03,-1.4 16.4,-3.1 25.74,-13.4 22.6,-29.8 -8.38,-43.7 -81.37,-121.8 -127.79,-112.9 -21.86,4.2 -45.2,22.9 -74.69,61.1 -33.33,40.3 -59.12,60.9 -86.43,66.1 -51.92,9.9 -86.47,-30.2 -96.68,-83.4 -19.11,-99.7 37.26,-226.6 167.01,-251.5 m 1476.21,750.6 c 100.95,-35.6 182.84,-4 207.36,65.5 24.91,70.8 -16.45,145.8 -112.21,179.6 -101,35.5 -182.89,3.9 -207.8,-66.9 -24.52,-69.5 16.88,-144.5 112.65,-178.2 m -257.5,-793.9 c 145.55,-51.3 217.45,-39.7 240.53,25.8 13.87,39.4 -0.7,60.7 -24.04,86.6 -21.99,25.5 -33.51,47.2 -20.55,83.9 l 53.57,152.2 c 42.98,121.9 97.9,198.4 115.44,248.2 25.44,72.2 -7.24,117.6 -112.16,154.6 -132.46,46.6 -226.48,26.7 -250.04,-40.2 -14.31,-40.7 6.94,-60 37.39,-78.1 31.33,-19.9 42.06,-35.4 30.06,-69.5 l -102.57,-291.2 c -12,-34.1 -35.43,-42 -73.38,-49.3 -29.15,-7.4 -61.39,-15.2 -74.35,-52 -22.59,-64.2 37.13,-120.7 180.1,-171 m 444.58,-175.4 c 143.18,-71.2 216.57,-73.5 249.99,-6.3 13,26.2 9.2,49.8 -12,85.2 -24.39,41.6 -27.53,57.1 -13.92,84.5 l 82.94,166.9 c 36.51,73.5 126.52,107.9 192.62,75.1 52.3,-26 66,-76.4 30.8,-147.3 -37.1,-74.7 -130.1,-208.7 -167.23,-283.3 -42.06,-84.7 -12.04,-149.3 91.33,-200.7 112,-55.7 209.7,-43.6 245.5,28.6 14.9,29.9 6.7,51 -28.2,77.6 -31.7,23.6 -39.2,42.9 -28.1,65.3 36.5,73.4 104,190.5 151,285.2 61.3,123.2 41.1,238.9 -92.1,305 -122,60.7 -241.3,11.3 -346.19,-87.2 l -12.44,6.2 c 10.52,21.2 27.84,52.9 39.62,76.6 46.41,93.3 33.81,146.2 -45.86,185.8 -123.29,61.2 -233.84,13.7 -272.85,-64.7 -16.71,-33.7 -12.91,-63.5 12,-75.9 16.19,-8 24.91,-6.1 39.83,-13.6 19.94,-9.9 23.74,-30.4 7.64,-62.7 l -113.26,-227.9 c -13.61,-27.4 -32.85,-38.1 -79.49,-41.3 -43.5,-3.2 -68.98,-16.9 -83.81,-46.8 -28.49,-57.3 25.17,-121.2 152.18,-184.3 m 1291.03,-759.6 c 250.5,-182.7 460.8,-102 613.2,107 121.3,166.2 129.1,332.6 3.2,424.4 -97.7,71.3 -207.5,48.2 -294.7,-24.2 l -8.5,9.6 c 47.6,58.2 191.3,208.1 228.2,258.6 41.8,57.3 29.4,111.1 -63.8,179.1 -125.9,91.8 -212.1,89.3 -254.6,30.8 -21.4,-29.2 -8.2,-56 11.6,-80.7 26.8,-31.6 31,-51.9 9.7,-81.1 l -313,-429.2 c -49.2,-67.4 -91.1,-54 -128.7,-105.7 -46.8,-64 44.6,-177.1 197.4,-288.6 m 109.9,79.9 c -52.8,38.5 -38.2,110.5 45.3,225.1 97.6,133.7 213.1,190.6 265.9,152.1 48.3,-35.3 32.8,-127.3 -49.1,-239.6 -81.2,-111.2 -194.7,-186.7 -262.1,-137.6 m 1022.7,-735 c -7.2,6.6 -17.1,10.2 -25.3,17.8 -23.3,21.7 -26.6,57.1 21.8,109.1 39.8,42.6 98.1,87 142.7,134.8 104.2,112 100.8,261.3 -71.2,421.5 -159.8,148.7 -310,170.9 -392.4,82.4 -38.9,-41.8 -23.2,-124.9 25.6,-170.3 14.3,-13.3 29.3,-19.6 41.8,-12.3 64.4,44.7 130,52 182,3.6 57,-53.1 59.8,-103.2 -8.5,-176.5 -11.3,-12.3 -28.5,-28.6 -39.9,-38.8 -30.2,45.1 -73.2,90.8 -107.8,123.1 -124.1,115.5 -251.9,141.5 -358,27.5 -95.7,-102.8 -85.2,-230.2 8.3,-317.4 81.5,-75.8 203,-88.3 318.9,-2.5 l 9.4,-12.5 c -11.5,-10.2 -25.8,-23.6 -38.1,-36.8 -66.3,-71.1 -71.2,-151.9 -5.1,-213.5 88.5,-82.4 230.2,-58.7 286.1,1.3 19.9,21.5 23.9,46.2 9.7,59.5 M 11635,11776 c -35.6,33.2 -32.4,79.6 2.7,117.4 37.9,40.7 86,45.4 150.2,-14.4 15.3,-14.2 33.7,-33.2 46.1,-50.5 l -9.5,-10.2 c -72,-77.4 -144.7,-84 -189.5,-42.3 m 388.5,-643.6 c 98.7,-111.3 172.8,-140.3 226.9,-92.3 20.8,18.4 26.1,41.8 18,86.6 -8,32 -9.6,54.7 22.6,83.3 l 304.7,270.4 c 111.3,98.7 175.9,124.4 230,172.4 49.9,44.3 57,97.1 -25.1,189.5 -86.7,97.7 -177.1,134.7 -236.4,82.1 -28,-25 -28.2,-43.7 -5,-84.5 19.6,-34.6 18.4,-54.2 -11.7,-81 l -418.1,-370.9 c -29.1,-25.9 -58.3,-20.2 -87.3,-10.6 -47.4,13.7 -68.2,12 -92.1,-9.3 -50,-44.2 -26.1,-123.5 73.5,-235.7 m 837,-686.1 c -5.8,7.9 -14.9,13.3 -21.4,22.3 -18.9,25.8 -15.4,61.1 41.9,102.8 47.2,34.5 113,67 165.8,105.5 123.6,90.1 148.7,237.5 10.2,427.3 -128.6,176.4 -272,226.7 -369.8,155.4 -46,-33.5 -46.3,-118.1 -7,-172 11.4,-15.8 25,-24.8 38.7,-20 71.6,31.6 137.4,26.3 179.2,-31.1 45.9,-62.9 39.1,-112.6 -41.8,-171.6 -13.4,-9.8 -33.4,-22.6 -46.6,-30.5 -21,50.1 -54.5,103.1 -82.3,141.3 -100,137.1 -220.6,186.8 -346.4,95 -113.5,-82.7 -127.4,-209.9 -52,-313.3 65.5,-89.9 182.4,-125.1 312.6,-62.9 l 6.7,-14 c -13.2,-7.8 -29.7,-18.2 -44.3,-28.9 -78.6,-57.3 -98.9,-135.7 -45.6,-208.8 71.2,-97.7 215,-101.3 281.3,-53 23.6,17.3 32.3,40.8 20.8,56.5 m -331.7,322.6 c -28.7,39.3 -16.7,84.2 24.9,114.5 44.9,32.8 93,28.3 144.6,-42.5 12.3,-16.8 26.8,-39 35.7,-58.3 l -11.3,-8.2 c -85.4,-62.3 -157.8,-54.9 -193.9,-5.5 m 268,-702.9 c 74.6,-141.42 132.8,-186.19 199.2,-151.15 25.8,13.65 36.6,35.03 40,76.13 4.6,48.02 11.1,62.42 38.1,76.72 l 164.9,87 c 72.5,38.2 165.7,13.5 200.1,-51.6 27.2,-51.7 9.1,-100.6 -61.1,-137.6 -73.7,-38.92 -227.4,-93.28 -301.2,-132.24 -83.6,-44.11 -97,-114.09 -43.2,-216.13 58.4,-110.69 144.7,-157.94 216,-120.33 29.5,15.58 35.3,37.48 22.5,79.49 -12,37.7 -6.8,57.72 15.3,69.37 72.5,38.31 195.7,93.84 289.2,143.19 121.8,64.22 172.9,169.84 103.5,301.45 -63.6,120.5 -189.2,150.1 -331.9,131.4 l -6.5,12.3 c 20.9,11.1 53.5,26.7 76.9,39 92.2,48.7 112.9,98.9 71.4,177.6 -64.3,121.8 -181.8,147.8 -259.2,106.9 -33.2,-17.5 -47.6,-43.9 -34.6,-68.5 8.4,-16 16.6,-19.6 24.4,-34.3 10.3,-19.7 1.4,-38.5 -30.5,-55.4 l -225.1,-118.8 c -27.1,-14.2 -48.9,-11.6 -88.6,13 -37.2,22.9 -65.9,26.6 -95.4,11 -56.6,-29.9 -50.4,-113.1 15.8,-238.5 m 478.1,-1007.36 c 61.8,-162.47 232.2,-238.99 373.9,-185.11 32.5,12.34 49.3,30.62 44.4,43.63 -3.5,9.11 -14.2,13.96 -35.6,19.19 -62.2,15.05 -140.9,53.58 -172.5,136.78 -39.5,103.96 36,202.61 179,256.97 124.8,47.42 217,31.89 241.7,-33.07 17.3,-45.51 -2.7,-94.76 -85.1,-175.21 -67,-62.61 -81.5,-94.9 -70.1,-124.83 14.8,-38.96 84.2,-45.32 176.5,-10.25 116.9,44.46 180.4,116.18 160.6,168.19 -10.8,28.62 -51.5,53.31 -100,67.58 28.4,46.51 30.1,112.6 6.3,174.99 -62.7,165.05 -268.1,235.73 -481.3,154.71 -223.5,-84.99 -316.4,-286.9 -237.8,-493.57 m 784.8,-923.91 c 198.7,53.75 267.1,216.3 217.7,398.85 -63.2,233.54 -284,330.78 -494.7,273.76 -243,-65.7 -330.3,-259.32 -274,-467.39 53,-195.98 196.4,-283.93 306.5,-254.13 48.3,13.04 77.1,39.57 72,58.37 -2.1,8.07 -10.7,12.96 -29.1,22.38 -59.2,27.18 -121.2,91.1 -141.1,164.92 -22.6,83.24 5,178.53 110.2,215.65 l 118.8,-428.78 c 30.1,0.92 68.1,4.02 113.7,16.37 m -143.3,439.42 c 122.8,30.36 207.4,-0.04 225.9,-68.5 14.6,-53.66 -23.5,-110.07 -118.8,-135.86 -13.4,-3.62 -25.8,-5.54 -34.3,-6.41 l -72.8,210.77"
         style="fill:#746242;fill-opacity:1;fill-rule:nonzero;stroke:none"
         id="path16" /></g></g></svg>
